<svg width="21" height="21" viewBox="0 0 21 21" fill="none" xmlns="http://www.w3.org/2000/svg">
<g clip-path="url(#clip0)">
<path d="M17.9095 0.706055H3.56091C1.92186 0.706055 0.588135 2.02045 0.588135 3.63574V17.7764C0.588135 19.3917 1.92186 20.7061 3.56091 20.7061H17.9095C19.5485 20.7061 20.8823 19.3917 20.8823 17.7764V3.63574C20.8823 2.02045 19.5485 0.706055 17.9095 0.706055ZM10.7748 15.9404C7.8242 15.9404 5.42384 13.5749 5.42384 10.667C5.42384 7.75912 7.8242 5.39355 10.7748 5.39355C13.7255 5.39355 16.1258 7.75912 16.1258 10.667C16.1258 13.5749 13.7255 15.9404 10.7748 15.9404ZM16.7204 6.56543C15.7369 6.56543 14.9367 5.77686 14.9367 4.80762C14.9367 3.83838 15.7369 3.0498 16.7204 3.0498C17.7039 3.0498 18.504 3.83838 18.504 4.80762C18.504 5.77686 17.7039 6.56543 16.7204 6.56543Z" fill="white" style="fill: var(--primary-color)"/>
<path d="M16.7204 4.22168C16.3923 4.22168 16.1259 4.48428 16.1259 4.80762C16.1259 5.13095 16.3923 5.39355 16.7204 5.39355C17.0485 5.39355 17.315 5.13095 17.315 4.80762C17.315 4.48428 17.0485 4.22168 16.7204 4.22168Z" fill="white" style="fill: var(--primary-color)"/>
<path d="M10.7748 6.56543C8.48019 6.56543 6.61292 8.40564 6.61292 10.667C6.61292 12.9283 8.48019 14.7686 10.7748 14.7686C13.0694 14.7686 14.9367 12.9283 14.9367 10.667C14.9367 8.40564 13.0694 6.56543 10.7748 6.56543Z" fill="#ffffff" style="fill: var(--primary-color)"/>
</g>
<defs>
<clipPath id="clip0">
<rect x="0.588135" y="0.706055" width="20.2941" height="20" fill="white"/>
</clipPath>
</defs>
</svg>
