<!DOCTYPE svg PUBLIC "-//W3C//DTD SVG 20010904//EN" "http://www.w3.org/TR/2001/REC-SVG-20010904/DTD/svg10.dtd">
<svg version="1.0" xmlns="http://www.w3.org/2000/svg" width="512px" height="512px" viewBox="0 0 5120 5120" preserveAspectRatio="xMidYMid meet">
<g id="layer101" fill="#ffffff" style="fill: var(--primary-color)" stroke="none">
 <path d="M3946 4719 c-110 -18 -166 -58 -881 -635 -379 -306 -701 -565 -714 -575 l-24 -20 23 -99 23 -99 821 -872 c452 -479 831 -888 843 -908 40 -64 21 -144 -46 -188 -71 -48 3 -82 -1499 686 -763 390 -1436 733 -1497 763 l-110 55 -320 -91 c-354 -102 -412 -124 -481 -188 -60 -55 -84 -106 -84 -183 0 -103 57 -188 167 -247 49 -27 4414 -1696 4488 -1717 22 -6 77 -11 122 -11 146 0 240 53 303 172 32 58 35 71 38 168 3 104 0 120 -362 1903 -398 1965 -377 1876 -470 1975 -56 60 -123 97 -200 111 -66 12 -70 12 -140 0z"/>
 <path d="M2050 4603 c2 -33 199 -798 205 -797 11 0 444 347 445 356 0 11 -350 330 -403 367 -27 18 -72 41 -100 51 -62 21 -147 35 -147 23z"/>
 <path d="M1740 4449 c-17 -24 -40 -60 -50 -79 -15 -29 -472 -1326 -482 -1368 -3 -12 1986 -1036 2002 -1030 4 2 -241 267 -545 590 l-553 588 -162 657 c-90 362 -166 664 -170 672 -6 11 -16 3 -40 -30z"/>
 </g>

</svg>