<svg width="21" height="12" viewBox="0 0 21 12" fill="none" xmlns="http://www.w3.org/2000/svg">
<path fill="white" style="fill: var(--primary-color)" d="M20.1865 10.3058C20.162 10.2536 20.1391 10.2103 20.1178 10.1756C19.7657 9.55066 19.0928 8.78357 18.0996 7.87413L18.0786 7.8533L18.0681 7.84309L18.0575 7.83262H18.0468C17.5961 7.40914 17.3106 7.1244 17.1911 6.97862C16.9723 6.70092 16.9233 6.41982 17.0429 6.13501C17.1273 5.91982 17.4446 5.46537 17.9939 4.77104C18.2828 4.40307 18.5116 4.10816 18.6806 3.88597C19.8993 2.2892 20.4277 1.26884 20.2656 0.824499L20.2027 0.720661C20.1604 0.658147 20.0512 0.600958 19.8753 0.548802C19.699 0.496756 19.4736 0.488149 19.1988 0.522834L16.1558 0.54355C16.1065 0.526335 16.0361 0.52794 15.9444 0.548802C15.8528 0.569665 15.807 0.580133 15.807 0.580133L15.7541 0.60621L15.712 0.63754C15.6768 0.658256 15.638 0.694693 15.5957 0.746776C15.5536 0.798676 15.5185 0.859585 15.4903 0.928992C15.159 1.76899 14.7823 2.54998 14.3596 3.27191C14.0989 3.7024 13.8596 4.07548 13.641 4.39137C13.4226 4.70714 13.2395 4.9398 13.0917 5.08894C12.9436 5.23822 12.81 5.35781 12.6901 5.44816C12.5703 5.53854 12.4788 5.57672 12.4155 5.56275C12.352 5.54878 12.2922 5.53492 12.2357 5.52107C12.1371 5.45855 12.0578 5.37353 11.9981 5.26594C11.938 5.15835 11.8976 5.02292 11.8765 4.85978C11.8555 4.69653 11.843 4.55611 11.8395 4.43805C11.8362 4.32014 11.8377 4.15335 11.8448 3.93816C11.8522 3.72286 11.8555 3.57719 11.8555 3.50082C11.8555 3.23697 11.8607 2.95063 11.8712 2.64171C11.8818 2.33278 11.8904 2.08802 11.8977 1.9077C11.9048 1.72719 11.9082 1.53622 11.9082 1.3349C11.9082 1.13357 11.8957 0.975677 11.8712 0.86108C11.8469 0.746629 11.8096 0.635534 11.7605 0.527831C11.7111 0.420237 11.6388 0.337007 11.5439 0.277921C11.4488 0.218909 11.3306 0.172078 11.1899 0.137283C10.8166 0.0540162 10.3411 0.00897266 9.76335 0.00196993C8.4532 -0.0118896 7.61136 0.0714864 7.23801 0.251989C7.09009 0.328253 6.95623 0.432455 6.83654 0.564267C6.70971 0.71705 6.69202 0.800427 6.78358 0.81414C7.2063 0.876545 7.50555 1.02583 7.68168 1.26184L7.74515 1.3869C7.79452 1.47714 7.84381 1.63689 7.89314 1.86594C7.9424 2.09498 7.97419 2.34836 7.98818 2.62591C8.02334 3.13277 8.02334 3.56665 7.98818 3.92758C7.95291 4.28866 7.91961 4.56975 7.88781 4.77108C7.85602 4.97241 7.8085 5.13555 7.74515 5.26047C7.68168 5.38542 7.63945 5.4618 7.61828 5.48952C7.59715 5.51724 7.57953 5.53471 7.56554 5.54156C7.47398 5.57614 7.37876 5.59376 7.2802 5.59376C7.1815 5.59376 7.06181 5.5451 6.92096 5.44787C6.78014 5.35063 6.63399 5.21707 6.48251 5.04696C6.33104 4.87681 6.1602 4.63905 5.96994 4.33363C5.77983 4.02821 5.58257 3.66724 5.37828 3.25072L5.20926 2.94866C5.1036 2.75433 4.95926 2.47138 4.77611 2.10005C4.59284 1.72858 4.43085 1.36925 4.29003 1.02214C4.23374 0.876362 4.14918 0.765377 4.03649 0.689003L3.9836 0.657673C3.94844 0.629954 3.892 0.60052 3.81458 0.569154C3.73705 0.537824 3.65614 0.515357 3.57154 0.501534L0.676374 0.522251C0.380525 0.522251 0.179789 0.588302 0.0740918 0.720223L0.0317906 0.782628C0.0106586 0.817386 0 0.872897 0 0.949307C0 1.02568 0.0211321 1.11942 0.0634332 1.2304C0.486075 2.20932 0.945688 3.15342 1.44227 4.06282C1.93886 4.97223 2.37038 5.70478 2.73659 6.25982C3.10286 6.81526 3.47621 7.33948 3.85662 7.83222C4.23704 8.32515 4.48884 8.64104 4.61205 8.77981C4.7354 8.91885 4.83229 9.02279 4.90272 9.0922L5.16692 9.34207C5.33598 9.50872 5.58423 9.70829 5.9118 9.94081C6.23944 10.1735 6.60216 10.4025 7.00016 10.6283C7.39822 10.8538 7.86132 11.0377 8.38969 11.18C8.91799 11.3224 9.43219 11.3796 9.93237 11.352H11.1475C11.394 11.331 11.5807 11.2547 11.7076 11.1228L11.7496 11.0707C11.7779 11.0292 11.8044 10.9648 11.8288 10.8782C11.8535 10.7915 11.8658 10.6959 11.8658 10.5919C11.8586 10.2934 11.8816 10.0244 11.9343 9.78496C11.987 9.54555 12.047 9.36505 12.1142 9.24349C12.1813 9.12204 12.257 9.01955 12.3412 8.93646C12.4257 8.8532 12.4859 8.80275 12.5212 8.78539C12.5563 8.76792 12.5843 8.75607 12.6054 8.74896C12.7745 8.69345 12.9734 8.74721 13.2026 8.91049C13.4316 9.07364 13.6463 9.27507 13.8472 9.51448C14.048 9.7541 14.2892 10.0229 14.5709 10.3214C14.8528 10.62 15.0993 10.8419 15.3105 10.9879L15.5218 11.1129C15.6629 11.1962 15.846 11.2726 16.0715 11.342C16.2965 11.4114 16.4937 11.4287 16.663 11.3941L19.3679 11.3525C19.6354 11.3525 19.8436 11.3088 19.9913 11.2222C20.1392 11.1354 20.2271 11.0398 20.2555 10.9359C20.2838 10.8318 20.2853 10.7137 20.2608 10.5816C20.2358 10.4499 20.2111 10.3578 20.1865 10.3058Z" />
</svg>
