<svg width="103" height="20" viewBox="0 0 103 20" fill="none" xmlns="http://www.w3.org/2000/svg">
<path d="M55.9771 18.8724C60.9679 18.8724 65.0137 14.9181 65.0137 10.0402C65.0137 5.16233 60.9679 1.20801 55.9771 1.20801C50.9864 1.20801 46.9406 5.16233 46.9406 10.0402C46.9406 14.9181 50.9864 18.8724 55.9771 18.8724Z" fill="#F69C1C"/>
<path d="M65.8515 3.58411L64.2171 0.187988L61.8137 5.03384L62.1433 6.18825L62.3905 7.03393L62.4867 7.32925L63.1184 9.34276L64.5467 8.00042L66.1399 9.12798L66.5244 8.67159L66.854 8.26888L67.0875 7.98699L67.6506 7.31582L67.6644 7.3024L65.8515 3.58411Z" fill="white" stroke="black" stroke-width="0.5" stroke-miterlimit="10"/>
<path d="M73.597 18.6441L73.2125 17.8522L70.3285 11.8925L69.8753 10.9663L69.4358 10.0535L68.4195 7.973L68.1037 8.34884L67.8565 8.64414L67.2934 9.32871L66.4419 10.3623L64.6978 9.12737L62.3494 11.3287L61.443 8.49649L61.0996 7.3824L60.825 6.55018L60.7426 6.25488L54.233 19.4361H73.9815L73.597 18.6441Z" fill="black"/>
<path d="M54.769 2.41602L57.2274 7.38268L56.6094 7.97331L56.4034 8.17466L56.0051 8.56394L54.3295 10.2553L53.066 9.65124L52.3518 9.2888L51.6102 8.95322L54.769 2.41602Z" fill="white" stroke="black" stroke-width="0.5" stroke-miterlimit="10"/>
<path d="M50.9097 9.82552L51.6376 10.1611L51.6513 10.1745L52.3792 10.5235L54.6591 11.6511L56.7604 9.5302L57.3647 8.92615L57.5569 8.7248L57.7492 8.55029L57.4608 9.1275L57.0213 10.0537L53.2445 17.8527L52.8599 18.6447L52.4754 19.4367H46.2676L50.9097 9.82552Z" fill="black" stroke="black" stroke-miterlimit="10"/>
<path d="M45.897 18.5107L47.4215 15.3428L42.6558 4.73828L41.1313 7.90621L45.897 18.5107Z" fill="black"/>
<path d="M12.4424 4.89962H4.68306V8.30902H11.8107V11.7587H4.68306V19.5171H0.0686646V1.46338H12.4424V4.89962Z" fill="black"/>
<path d="M27.9624 12.3094C27.9624 14.5511 27.3307 16.3096 26.0809 17.5983C24.8311 18.8869 23.0594 19.5312 20.7658 19.5312C18.486 19.5312 16.7281 18.8869 15.4645 17.5983C14.201 16.3096 13.5692 14.5511 13.5692 12.3094C13.5692 10.0409 14.201 8.26899 15.4645 6.99377C16.7281 5.71854 18.4997 5.07422 20.7658 5.07422C23.0457 5.07422 24.8173 5.71854 26.0809 7.00719C27.3307 8.29584 27.9624 10.0677 27.9624 12.3094ZM23.4989 12.3363C23.4989 11.5309 23.4302 10.8597 23.2929 10.3228C23.1555 9.78584 22.9633 9.35629 22.7298 9.03413C22.4688 8.69854 22.1804 8.45692 21.8645 8.32269C21.5487 8.18845 21.1778 8.12133 20.7658 8.12133C20.3813 8.12133 20.0242 8.17503 19.7083 8.29584C19.3924 8.41665 19.104 8.63142 18.8431 8.96701C18.5959 9.27575 18.3899 9.71872 18.2525 10.2691C18.1014 10.8194 18.0328 11.504 18.0328 12.3363C18.0328 13.1685 18.1014 13.8397 18.2388 14.3498C18.3761 14.8599 18.5547 15.276 18.7881 15.5848C19.0216 15.8935 19.31 16.1351 19.6534 16.2693C19.9967 16.4036 20.3813 16.4841 20.807 16.4841C21.1504 16.4841 21.5075 16.417 21.8645 16.2693C22.2216 16.1217 22.51 15.9069 22.7298 15.6116C22.9907 15.2626 23.183 14.8465 23.3066 14.3632C23.4439 13.88 23.4989 13.1954 23.4989 12.3363Z" fill="black"/>
<path d="M39.6211 9.90665H39.264C39.0992 9.85296 38.852 9.81269 38.5498 9.78584C38.2339 9.75899 37.8906 9.74557 37.506 9.74557C37.0528 9.74557 36.5721 9.81269 36.0777 9.9335C35.5833 10.0677 35.0889 10.2154 34.6219 10.3899V19.5044H30.282V5.89305H34.6082V7.83944C34.8004 7.66494 35.0751 7.43674 35.4322 7.16827C35.7893 6.89981 36.1052 6.68503 36.3936 6.52395C36.7095 6.33602 37.0803 6.17494 37.4923 6.04071C37.9043 5.90647 38.3026 5.83936 38.6734 5.83936C38.8108 5.83936 38.9756 5.83936 39.1404 5.85278C39.3189 5.8662 39.47 5.87963 39.6073 5.89305V9.90665H39.6211Z" fill="black"/>
<path d="M84.5017 9.90665H84.1446C83.9798 9.85296 83.7326 9.81269 83.4305 9.78584C83.1146 9.75899 82.7712 9.74557 82.3867 9.74557C81.9335 9.74557 81.4528 9.81269 80.9584 9.9335C80.4639 10.0677 79.9695 10.2154 79.5026 10.3899V19.5044H75.1626V5.89305H79.5026V7.83944C79.6948 7.66494 79.9695 7.43674 80.3266 7.16827C80.6837 6.89981 80.9996 6.68503 81.288 6.52395C81.6039 6.33602 81.9747 6.17494 82.3867 6.04071C82.7987 5.90647 83.197 5.83936 83.5678 5.83936C83.7051 5.83936 83.87 5.83936 84.0348 5.85278C84.2133 5.8662 84.3644 5.87963 84.5017 5.89305V9.90665Z" fill="black"/>
<path d="M102.918 10.5104C102.918 12.1882 102.547 13.6916 101.792 15.0204C101.037 16.3493 100.089 17.3694 98.9355 18.0808C97.9742 18.6849 96.9305 19.0741 95.8043 19.2486C94.6782 19.4231 93.4697 19.5036 92.2062 19.5036H86.4245V1.46338H92.1513C93.4559 1.46338 94.6645 1.54392 95.8043 1.70499C96.9442 1.86606 98.0017 2.25533 98.9905 2.8862C100.213 3.6513 101.16 4.67143 101.874 5.96002C102.561 7.23519 102.918 8.75197 102.918 10.5104ZM98.1527 10.4701C98.1527 9.27546 97.9467 8.26875 97.521 7.42311C97.109 6.57747 96.4635 5.91975 95.5983 5.43653C94.9666 5.10096 94.3074 4.91304 93.6207 4.87277C92.9341 4.84593 92.1101 4.81908 91.1487 4.81908H91.0526V16.1211H91.135C92.1787 16.1211 93.0577 16.1077 93.7718 16.0674C94.4859 16.0271 95.1726 15.8124 95.8181 15.4231C96.5734 14.9533 97.1639 14.309 97.5485 13.4768C97.933 12.6446 98.1527 11.6513 98.1527 10.4701Z" fill="black"/>
</svg>
